<?xml version="1.0" standalone="no"?>
<!DOCTYPE svg PUBLIC "-//W3C//DTD SVG 20010904//EN"
 "http://www.w3.org/TR/2001/REC-SVG-20010904/DTD/svg10.dtd">
<svg version="1.0" xmlns="http://www.w3.org/2000/svg"
 width="512.000000pt" height="512.000000pt" viewBox="0 0 512.000000 512.000000"
 preserveAspectRatio="xMidYMid meet">

<g transform="translate(0.000000,512.000000) scale(0.100000,-0.100000)"
fill="#426683" stroke="none">
<path d="M1915 4730 c-342 -38 -649 -184 -886 -420 -231 -230 -360 -501 -385
-813 l-7 -88 -41 -21 c-128 -65 -288 -208 -369 -331 -57 -85 -105 -197 -134
-306 -35 -132 -37 -325 -5 -454 88 -355 352 -632 694 -727 124 -34 117 -41
111 108 -3 70 -1 160 4 199 l9 73 -35 11 c-71 23 -172 82 -224 133 -172 165
-226 397 -147 624 26 73 100 181 159 233 46 40 164 102 253 134 63 22 92 47
118 100 20 42 21 55 15 158 -18 287 95 546 322 739 322 273 789 332 1168 148
166 -80 272 -172 376 -326 56 -84 86 -110 142 -125 52 -14 98 -6 173 27 165
73 372 61 532 -32 74 -43 182 -159 219 -234 39 -82 52 -131 63 -237 10 -93 39
-157 85 -187 14 -9 67 -30 118 -47 233 -76 370 -238 408 -481 19 -125 -15
-279 -88 -388 -71 -107 -193 -201 -314 -239 l-35 -11 9 -73 c5 -39 7 -129 4
-199 -5 -149 -13 -142 113 -107 340 94 604 371 692 726 32 131 30 321 -6 458
-75 286 -263 519 -518 640 l-76 36 -21 87 c-43 173 -171 382 -303 493 -139
118 -294 193 -473 230 -87 18 -275 15 -372 -6 l-81 -17 -38 43 c-256 293 -618
459 -1029 474 -66 2 -156 0 -200 -5z"/>
<path d="M2069 3320 c-27 -14 -83 -81 -210 -252 -95 -128 -179 -251 -187 -273
-21 -61 -1 -136 50 -181 41 -36 489 -306 526 -316 76 -21 165 21 201 94 41 85
16 174 -64 230 l-46 33 28 8 c52 15 256 20 332 8 312 -49 571 -240 711 -524
111 -224 128 -462 53 -702 -101 -320 -371 -566 -706 -642 -95 -21 -297 -21
-395 1 -176 39 -348 134 -476 264 -122 124 -206 272 -248 438 -18 73 -22 116
-22 234 1 161 17 239 75 372 50 114 42 192 -28 262 -37 38 -82 56 -138 56 -94
0 -155 -50 -206 -170 -77 -183 -104 -320 -104 -535 1 -176 14 -264 66 -420
154 -462 552 -808 1039 -901 137 -26 361 -24 497 5 553 116 959 525 1070 1078
26 130 24 386 -4 513 -63 283 -187 505 -394 705 -202 195 -443 314 -729 361
-93 16 -341 14 -427 -2 l-33 -6 15 28 c23 45 19 120 -10 170 -45 77 -156 107
-236 64z"/>
</g>
</svg>
