<?xml version="1.0" encoding="utf-8"?>
<!-- Generator: Adobe Illustrator 28.2.0, SVG Export Plug-In . SVG Version: 6.00 Build 0)  -->
<svg version="1.1" id="Capa_1" xmlns="http://www.w3.org/2000/svg" xmlns:xlink="http://www.w3.org/1999/xlink" x="0px" y="0px"
	 viewBox="0 0 533 533" style="enable-background:new 0 0 533 533;" xml:space="preserve">
<style type="text/css">
	.st0{fill:#426683;stroke:#426683;stroke-width:0.6;stroke-miterlimit:1;}
	.st1{fill:#426683;stroke:#426683;stroke-width:6;stroke-miterlimit:1;}
	.st2{fill:none;stroke:#426683;stroke-width:20;stroke-linecap:round;stroke-miterlimit:10;}
</style>
<g transform="translate(0.000000,533.000000) scale(0.100000,-0.100000)">
	<g>
		<path class="st0" d="M3880.4,5005c5.3,0,9.6-4.3,9.6-9.6V334.6c0-5.3-4.3-9.6-9.6-9.6H1509.6c-5.3,0-9.6,4.3-9.6,9.6v4660.7
			c0,5.3,4.3,9.6,9.6,9.6L3880.4,5005 M3880.4,5205H1509.6c-115.8,0-209.6-93.9-209.6-209.6V334.6c0-115.8,93.9-209.6,209.6-209.6
			h2370.7c115.8,0,209.6,93.9,209.6,209.6v4660.7C4090,5111.1,3996.1,5205,3880.4,5205L3880.4,5205z"/>
	</g>
	<g>
		<g>
			<path class="st1" d="M2115,4690.2c-137.3-24.4-264.1-167.4-264.1-299c0.8-177.1,210.5-341.3,368.9-288.4
				c104,34.2,190.2,121.9,221.1,225.9c15.4,49.6,16.3,61.7,8.1,99.2C2413.2,4588.5,2253.1,4714.6,2115,4690.2z M2234.4,4561
				c27.7-10.6,65-44.6,80.4-74c14.6-28.4,15.4-151.9,0-187.7c-22.7-55.2-82.9-86.9-163.4-86.9c-54.4,0-95.9,12.1-125.9,38.2
				c-39.8,33.3-48.8,58.5-48.8,141.4c0,65,2.5,79.6,20.3,108.9c28.4,49.6,72.3,69,151.9,69C2183.2,4569.8,2221.4,4565.8,2234.4,4561
				z"/>
			<path class="st1" d="M2115,4081.5c-137.3-24.4-264.1-167.4-264.1-299c0.8-177.1,210.5-341.3,368.9-288.4
				c104,34.2,190.2,121.9,221.1,225.9c15.4,49.6,16.3,61.7,8.1,99.2C2413.2,3980,2253.1,4105.9,2115,4081.5z M2234.4,3952.3
				c27.7-10.6,65-44.6,80.4-74c14.6-28.4,15.4-151.9,0-187.7c-22.7-55.2-82.9-86.9-163.4-86.9c-54.4,0-95.9,12.1-125.9,38.2
				c-39.8,33.3-48.8,58.5-48.8,141.4c0,65,2.5,79.6,20.3,108.9c28.4,49.6,72.3,69,151.9,69
				C2183.2,3961.3,2221.4,3957.1,2234.4,3952.3z"/>
			<path class="st1" d="M2637.5,4381.8c-137.3-24.4-264.1-167.4-264.1-299c0.8-177.1,210.5-341.3,368.9-288.4
				c104,34.2,190.2,121.9,221.1,225.9c15.4,49.6,16.3,61.7,8.1,99.2C2935.9,4280.2,2775.7,4406.2,2637.5,4381.8z M2757.1,4252.6
				c27.7-10.6,65-44.6,80.4-74c14.6-28.4,15.4-151.9,0-187.7c-22.7-55.2-82.9-86.9-163.4-86.9c-54.4,0-95.9,12.1-125.9,38.2
				c-39.8,33.3-48.8,58.5-48.8,141.4c0,65,2.5,79.6,20.3,108.9c28.4,49.6,72.3,69,151.9,69C2705.8,4261.6,2744,4257.5,2757.1,4252.6
				z"/>
		</g>
		<g>
			<path class="st1" d="M2918.2,4722.1c71.3,0,129.1-57.9,129.1-129.1V3584.3c0-71.3-57.9-129.1-129.1-129.1H1909.4
				c-71.3,0-129.1,57.9-129.1,129.1V4593c0,71.3,57.9,129.1,129.1,129.1H2918.2 M2918.2,4839.9H1909.4
				c-136.4,0-246.9-110.6-246.9-246.9V3584.3c0-136.4,110.6-246.9,246.9-246.9h1008.8c136.4,0,246.9,110.6,246.9,246.9V4593
				C3165.1,4729.3,3054.5,4839.9,2918.2,4839.9L2918.2,4839.9z"/>
		</g>
	</g>
</g>
<line class="st2" x1="199.8" y1="349.5" x2="147.6" y2="503.7"/>
<line class="st2" x1="232.1" y1="435.6" x2="204" y2="349.5"/>
<line class="st2" x1="232.6" y1="413.7" x2="335.4" y2="357.3"/>
<line class="st2" x1="232.1" y1="435.6" x2="298.3" y2="497.9"/>
<line class="st2" x1="335.4" y1="357.3" x2="394.1" y2="226.7"/>
<line class="st2" x1="204" y1="349.5" x2="142.1" y2="282.7"/>
</svg>
