<?xml version="1.0" standalone="no"?>
<!DOCTYPE svg PUBLIC "-//W3C//DTD SVG 20010904//EN"
 "http://www.w3.org/TR/2001/REC-SVG-20010904/DTD/svg10.dtd">
<svg version="1.0" xmlns="http://www.w3.org/2000/svg"
 width="512.000000pt" height="512.000000pt" viewBox="0 0 512.000000 512.000000"
 preserveAspectRatio="xMidYMid meet">

<g transform="translate(0.000000,512.000000) scale(0.100000,-0.100000)"
fill="#426683" stroke="none">
<path d="M914 4595 c-191 -41 -349 -201 -390 -394 -10 -48 -14 -145 -14 -356
0 -261 2 -294 19 -331 48 -105 182 -133 264 -56 56 53 57 57 57 364 0 175 4
298 11 323 14 50 64 100 114 114 25 7 148 11 323 11 307 0 311 1 364 57 77 82
49 216 -56 264 -37 17 -69 19 -336 18 -206 0 -313 -5 -356 -14z"/>
<path d="M3514 4591 c-76 -35 -117 -119 -94 -196 12 -40 48 -87 85 -108 13 -8
121 -14 330 -17 302 -5 311 -6 347 -28 20 -13 47 -40 60 -60 22 -36 23 -45 28
-347 3 -209 9 -317 17 -330 21 -37 68 -73 108 -85 77 -23 161 18 196 94 17 37
19 70 19 331 0 326 -8 385 -62 488 -43 82 -137 176 -217 217 -105 53 -162 60
-486 60 -261 0 -294 -2 -331 -19z"/>
<path d="M1640 3229 c-14 -6 -36 -20 -48 -32 -49 -46 -52 -62 -52 -294 0 -193
2 -222 19 -253 48 -91 175 -117 252 -53 61 51 69 86 69 298 0 105 -4 206 -10
224 -11 39 -51 86 -92 107 -31 16 -101 17 -138 3z"/>
<path d="M2500 3233 c-38 -15 -74 -50 -91 -87 -17 -37 -19 -71 -19 -397 l0
-356 -31 -7 c-80 -16 -139 -90 -139 -172 0 -53 37 -114 85 -142 34 -19 51 -22
110 -19 123 7 230 81 284 196 l26 56 3 395 c3 443 2 456 -65 507 -27 20 -48
28 -91 30 -32 1 -64 0 -72 -4z"/>
<path d="M3335 3222 c-44 -29 -74 -65 -85 -103 -6 -19 -10 -119 -10 -224 0
-212 8 -247 69 -298 77 -64 204 -38 252 53 17 31 19 60 19 256 0 213 -1 222
-22 254 -37 54 -71 73 -135 77 -45 3 -65 0 -88 -15z"/>
<path d="M2005 1868 c-118 -43 -154 -202 -64 -285 46 -42 189 -121 277 -153
119 -43 214 -60 342 -60 128 0 223 17 342 60 88 32 231 111 277 153 93 86 53
247 -72 287 -53 17 -88 7 -182 -49 -45 -27 -115 -62 -156 -77 -68 -26 -85 -28
-209 -28 -124 0 -141 2 -209 28 -41 15 -112 51 -157 78 -89 53 -138 65 -189
46z"/>
<path d="M627 1696 c-50 -18 -76 -42 -98 -91 -17 -36 -19 -70 -19 -330 0 -324
7 -381 60 -486 41 -80 135 -174 217 -217 103 -54 162 -62 488 -62 261 0 294 2
331 19 76 35 117 119 94 196 -12 40 -48 87 -85 108 -13 8 -121 14 -330 17
-302 5 -311 6 -347 28 -20 13 -47 40 -60 60 -22 36 -23 45 -28 347 -3 209 -9
317 -17 330 -19 33 -66 72 -102 84 -43 14 -57 13 -104 -3z"/>
<path d="M4385 1698 c-33 -11 -80 -51 -98 -83 -8 -13 -14 -121 -17 -330 -5
-302 -6 -311 -28 -347 -13 -20 -40 -47 -60 -60 -36 -22 -45 -23 -347 -28 -209
-3 -317 -9 -330 -17 -37 -21 -73 -68 -85 -108 -23 -77 18 -161 94 -196 37 -17
70 -19 331 -19 326 0 385 8 488 62 79 42 173 136 215 215 54 103 62 162 62
488 0 260 -2 294 -19 330 -22 49 -48 73 -98 91 -45 16 -67 16 -108 2z"/>
</g>
</svg>
