<?xml version="1.0" standalone="no"?>
<!DOCTYPE svg PUBLIC "-//W3C//DTD SVG 20010904//EN"
 "http://www.w3.org/TR/2001/REC-SVG-20010904/DTD/svg10.dtd">
<svg version="1.0" xmlns="http://www.w3.org/2000/svg"
 width="1318.000000pt" height="1308.000000pt" viewBox="0 0 1318.000000 1308.000000"
 preserveAspectRatio="xMidYMid meet">

<g transform="translate(0.000000,1308.000000) scale(0.100000,-0.100000)"
fill="#426683" stroke="none">
<path d="M6583 13039 c-75 -29 -146 -97 -185 -177 -31 -62 -33 -74 -33 -167
l0 -100 77 -165 c237 -511 372 -990 434 -1550 22 -195 25 -723 6 -910 -63
-604 -199 -1091 -453 -1630 l-73 -155 -1 -90 c0 -77 4 -98 27 -147 53 -113
151 -187 279 -211 103 -19 222 16 309 90 52 45 72 76 148 240 254 545 420
1145 489 1773 22 206 26 873 5 1065 -74 688 -241 1298 -506 1851 -84 174 -122
221 -214 266 -59 29 -77 33 -162 35 -76 2 -105 -1 -147 -18z"/>
<path d="M4473 10486 c-97 -32 -180 -103 -231 -199 -24 -47 -27 -62 -27 -152
0 -90 3 -106 28 -158 16 -32 59 -90 96 -130 211 -228 323 -474 365 -799 18
-142 46 -206 116 -272 165 -154 420 -137 555 36 77 99 92 216 55 435 -38 220
-95 397 -195 596 -131 261 -357 548 -487 617 -55 30 -74 34 -148 37 -53 2
-101 -2 -127 -11z"/>
<path d="M10645 9242 c-210 -75 -306 -313 -207 -515 110 -224 415 -274 592
-97 177 177 127 482 -98 592 -57 28 -79 33 -152 36 -62 2 -99 -3 -135 -16z"/>
<path d="M8613 8631 c-94 -35 -166 -102 -210 -196 -24 -53 -28 -72 -28 -155 0
-86 3 -101 31 -160 37 -78 99 -141 174 -178 49 -24 66 -27 160 -27 96 0 110 2
162 29 111 56 191 165 207 280 23 170 -59 326 -208 394 -77 36 -211 42 -288
13z"/>
<path d="M3263 7945 c-99 -30 -187 -107 -234 -203 -20 -40 -24 -62 -24 -152 0
-96 3 -110 29 -165 34 -68 105 -144 162 -173 22 -11 90 -34 151 -51 266 -73
484 -157 768 -295 1299 -631 2477 -1899 2971 -3195 24 -63 42 -116 40 -118 -3
-3 -5849 -2433 -6000 -2494 -33 -14 -47 -16 -43 -7 3 7 334 805 735 1773 401
968 872 2104 1046 2525 175 421 322 789 328 817 30 146 -63 317 -209 388 -82
40 -203 46 -286 15 -76 -29 -153 -92 -188 -155 -52 -94 -2472 -5938 -2487
-6008 -39 -174 61 -352 235 -417 48 -18 74 -21 148 -18 l90 4 770 323 c763
320 1655 694 4295 1801 751 315 1546 648 1768 741 221 93 419 177 440 188 52
27 116 96 148 161 45 90 45 176 0 338 -531 1912 -2397 3792 -4312 4347 -168
49 -257 57 -341 30z"/>
<path d="M10050 7623 c-417 -30 -843 -107 -1218 -219 -387 -116 -873 -321
-972 -410 -22 -20 -54 -66 -72 -102 -31 -62 -33 -73 -33 -172 0 -93 3 -112 26
-161 51 -109 151 -186 270 -207 86 -16 133 -5 277 65 491 237 1013 385 1592
450 219 25 773 24 985 0 405 -48 728 -120 1085 -242 144 -49 402 -156 511
-210 97 -50 172 -68 245 -62 182 14 322 163 332 352 5 94 -6 141 -50 215 -44
73 -101 114 -266 190 -615 285 -1221 446 -1892 505 -158 13 -676 19 -820 8z"/>
<path d="M8939 5434 c-101 -31 -201 -127 -236 -229 -11 -32 -18 -79 -18 -130
0 -68 5 -90 32 -146 66 -142 156 -201 344 -225 323 -41 556 -146 785 -354 49
-44 114 -93 144 -108 48 -24 67 -27 150 -27 81 0 103 4 150 26 198 93 279 314
184 502 -65 126 -329 345 -576 476 -317 168 -778 271 -959 215z"/>
</g>
</svg>
